# xmcd CD database file
#
# Track frame offsets:
#	150
#	19397
#	35786
#	50503
#	64206
#	83623
#	107690
#	127512
#	145832
#	165030
#	183876
#	198112
#	211739
#	230697
#
# Disc length: 3300 seconds
#
# Revision: 1
# Processed by: cddbd v1.5.2PL0 Copyright (c) Steve Scherf et al.
# Submitted via: CDex 1.51
#
DISCID=af0ce20e
DTITLE=McGuffy Lane - Wood
DYEAR=2003
DGENRE=Country
TTITLE0=Old Taylor
TTITLE1=Steady As She Goes
TTITLE2=Don't You Think About Me (when i'm gone)
TTITLE3=Railroad Song
TTITLE4=First Time
TTITLE5=It Takes Time
TTITLE6=Let's Go
TTITLE7=On The Line
TTITLE8=Runnin' Wild and Free
TTITLE9=Lady Autumn
TTITLE10=Nobody But A Fool
TTITLE11=Cumberland Gap
TTITLE12='Til The End
TTITLE13=The Omen
EXTD=YEAR: 2003
EXTT0=
EXTT1=
EXTT2=
EXTT3=
EXTT4=
EXTT5=
EXTT6=
EXTT7=
EXTT8=
EXTT9=
EXTT10=
EXTT11=
EXTT12=
EXTT13=
PLAYORDER=
